<?xml version="1.0" encoding="utf-8"?>
<!-- Generator: Adobe Illustrator 20.1.0, SVG Export Plug-In . SVG Version: 6.00 Build 0)  -->
<svg version="1.1" id="Layer_1" xmlns="http://www.w3.org/2000/svg" xmlns:xlink="http://www.w3.org/1999/xlink" x="0px" y="0px"
	 viewBox="0 0 42.8 51.5" style="enable-background:new 0 0 42.8 51.5;" xml:space="preserve">
<style type="text/css">
	.st0{fill:#969696;}
	.st1{clip-path:url(#SVGID_2_);fill:#FFFFFF;}
	.st2{fill:none;stroke:#FFFFFF;stroke-width:2;stroke-miterlimit:10;}
</style>
<g>
	<path class="st0" d="M9.6,3.7L3.3,8.4l6.3,4.7v-2.3H16c0-0.7,0-1.5,0-2.2c0-1,0.4-1.9,1-2.5L9.6,6V3.7"/>
	<path class="st0" d="M30.5,3.7v2.4l-7.4,0c0.2,0.2,0.3,0.4,0.4,0.6c0.2,0.5,0.3,1,0.4,1.5l0,0.1l0,0.1c0,0.5,0,1.3,0,2.4h6.5v2.3
		l6.3-4.7L30.5,3.7"/>
	<g>
		<defs>
			<polyline id="SVGID_1_" points="15.8,4.7 23.9,4.7 23.9,24.1 15.8,24.1 15.8,4.7 			"/>
		</defs>
		<clipPath id="SVGID_2_">
			<use xlink:href="#SVGID_1_"  style="overflow:visible;"/>
		</clipPath>
		<path class="st1" d="M17,6.1c-0.6,0.7-1,1.6-1,2.5c0,0.7,0,1.5,0,2.2h2c0,0-0.5-3.8,2.1-4.6c-0.1,0-0.2-0.1-0.3-0.1L17,6.1"/>
		<path class="st1" d="M19.9,6.1L19.9,6.1c0.1,0,0.2,0.1,0.3,0.1c2.2,1,2,4.6,2,4.6h1.8c0-1.1,0-1.9,0-2.4l0-0.1l0-0.1
			c-0.1-0.5-0.2-1-0.4-1.5c-0.1-0.2-0.2-0.4-0.4-0.6L19.9,6.1"/>
	</g>
	<path class="st2" d="M21.9,24.1c0-5.2,0.1-13.8,0-15.7c-0.2-1.4-1.1-1.8-2.1-1.7c-1,0.1-1.8,0.9-1.8,1.9c0,3.7-0.2,7.5-0.2,11.2
		c0,0.6,0,1.2,0,1.8"/>
	<path class="st0" d="M21.9,24.1c0-5.2,0.1-13.8,0-15.7c-0.2-1.4-1.1-1.8-2.1-1.7c-1,0.1-1.8,0.9-1.8,1.9c0,3.7-0.2,7.5-0.2,11.2
		c0,0.6,0,1.2,0,1.8c0,3.2,0.2,6.3,0.2,9.5c-0.2,0.5-0.9-0.2-0.9-0.2c-2.1-2.1-3.7-3.5-4.2-3.9c-1.1-0.9-2.8-0.7-3.7,0.4
		s-0.7,2.7,0.4,3.7c2.4,2.3,11.1,11.1,11.9,11.8c1.5,1.2,3.3,2,5.4,2.2c5.7,0.6,10.8-3.9,10.9-9.7V20.7c-0.1-1-0.9-1.8-1.9-1.8
		s-1.8,0.9-1.8,1.9v3.6c0,0.4-0.3,0.8-0.8,0.8c-0.4,0-0.8-0.3-0.8-0.8v-4.1v-2.5c-0.1-1-0.9-1.8-1.9-1.8s-1.8,0.9-1.8,1.9v5v1.4
		c0,0.4-0.3,0.8-0.8,0.8c-0.4,0-0.8-0.3-0.8-0.8v-4.4v-3c-0.1-1-0.9-1.8-1.9-1.8S23.5,16,23.5,17v6.4v0.8c0,0.4-0.3,0.8-0.8,0.8
		C22.3,25,21.9,24.7,21.9,24.1v-3.6"/>
</g>
</svg>
