<?xml version="1.0" encoding="utf-8"?>
<!-- Generator: Adobe Illustrator 21.0.2, SVG Export Plug-In . SVG Version: 6.00 Build 0)  -->
<svg version="1.1" id="Layer_1" xmlns="http://www.w3.org/2000/svg" xmlns:xlink="http://www.w3.org/1999/xlink" x="0px" y="0px"
	 viewBox="0 0 425.3 136.8" style="enable-background:new 0 0 425.3 136.8;" xml:space="preserve">
<style type="text/css">
	.st0{fill:#FFCC00;}
</style>
<path class="st0" d="M10.5,10.5v121h84.7v-121H10.5z M83.1,119.4H22.6V22.6h60.5V119.4z"/>
<path d="M151.3,64.8h-5.2c-6.9-9.7-13.7-19.3-20.5-30.2h-0.1v30.2h-5.8V22.7h5.2c6.9,9.6,13.7,19.2,20.4,30h0.1v-30h5.8V64.8z"/>
<path d="M165,48.1c1.7-5.5,3.4-10.6,4.9-17.1h0.1c1.7,6.5,3.2,11.6,4.8,17.1H165z M167.8,22.7l-14.6,42.1h6.3l3.7-11.5h12.7
	l3.3,11.5h8.1l-13.4-42.1H167.8z"/>
<path d="M194,64.8V28.3h-11.1v-5.6h29.4v5.6h-11.1v36.5H194z"/>
<path d="M214.6,64.8V43.7V22.7h7.2v21.1v21.1H214.6z"/>
<path d="M244.1,59.5c-7.5,0-10.2-8.3-10.2-16.4c0-7.8,3-15.2,10.2-15.2c7.2,0,10.2,7.4,10.2,15.2C254.2,51.2,251.6,59.5,244.1,59.5z
	 M244.1,65.5c11,0,17.9-9.8,17.9-22.4c0-11.8-7.6-21.2-17.9-21.2c-10.3,0-17.9,9.4-17.9,21.2C226.2,55.7,233,65.5,244.1,65.5z"/>
<path d="M297.8,64.8h-5.2c-6.9-9.7-13.7-19.3-20.5-30.2h-0.1v30.2h-5.8V22.7h5.2c6.9,9.6,13.7,19.2,20.4,30h0.1v-30h5.8V64.8z"/>
<path d="M311.6,48.1c1.7-5.5,3.4-10.6,4.9-17.1h0.1c1.7,6.5,3.2,11.6,4.8,17.1H311.6z M314.3,22.7l-14.6,42.1h6.3l3.7-11.5h12.7
	l3.3,11.5h8.1l-13.4-42.1H314.3z"/>
<path d="M335.9,22.7h7.2v36.5h14.3v5.7h-21.4V22.7z"/>
<g>
	<path d="M146.9,100v17.4c-3.9,1.5-7.9,2.6-12,2.6c-12.4,0-20.2-9.6-20.2-22c0-11.5,7.8-21.5,20.5-21.5c3.9,0,7.8,1.4,10.2,3.2
		l-2.3,5c-1.9-1.2-4.9-2.2-7.7-2.2c-7.7,0-12.9,6.1-12.9,15.6c0,10,6,15.9,12.2,15.9c1.9,0,3.6-0.2,5.1-1V100H146.9z"/>
	<path d="M172.7,82.8h-12v11.5h11.8v5.7h-11.8v13.6h14.2v5.7h-21.4V77.2h19.2V82.8z"/>
	<path d="M194.9,114c-7.5,0-10.2-8.3-10.2-16.4c0-7.8,3-15.2,10.2-15.2c7.2,0,10.2,7.4,10.2,15.2C205.1,105.7,202.4,114,194.9,114z
		 M194.9,120c11,0,17.9-9.8,17.9-22.4c0-11.8-7.6-21.2-17.9-21.2c-10.3,0-17.9,9.4-17.9,21.2C177.1,110.2,183.9,120,194.9,120z"/>
	<path d="M247.4,100v17.4c-3.8,1.5-7.9,2.6-12,2.6c-12.4,0-20.2-9.6-20.2-22c0-11.5,7.8-21.5,20.5-21.5c3.9,0,7.8,1.4,10.2,3.2
		l-2.3,5c-1.9-1.2-4.9-2.2-7.7-2.2c-7.7,0-12.9,6.1-12.9,15.6c0,10,6,15.9,12.2,15.9c1.9,0,3.6-0.2,5.1-1V100H247.4z"/>
	<path d="M261.3,82.8h3.2c4.3,0,6.7,2.5,6.7,6.8c0,5.7-3.4,8.2-6.9,8.4c-0.7,0.1-2.4,0.1-3,0.2V82.8z M279.6,119.3l-8.5-17.4
		c4.6-2.5,7.3-7.5,7.3-12.5c0-8.2-5-12.2-13.1-12.2h-11.2v42.1h7.2v-15.9h3.1h0.1l6.8,15.9H279.6z"/>
	<path d="M291.5,102.6c1.7-5.5,3.4-10.6,4.9-17.1h0.1c1.7,6.5,3.2,11.6,4.8,17.1H291.5z M294.2,77.2l-14.6,42.1h6.3l3.7-11.5h12.7
		l3.3,11.5h8.1l-13.4-42.1H294.2z"/>
	<path d="M327.2,77.2H316v42.1h7.2v-15.9h3.2c8.6,0,13.8-7,13.8-14.1C340.3,81.1,335.3,77.2,327.2,77.2z M326.2,98
		c-0.7,0.1-2.5,0.1-3,0.2V82.8h3.2c4.2,0,6.6,2.5,6.6,6.8C333,95.3,329.6,97.8,326.2,98z"/>
	<path d="M373.7,119.3h-7.2V99h-15v20.3h-7.2V77.2h7.2v16.2h15V77.3h7.2V119.3z"/>
	<path d="M380.6,119.3V98.2V77.2h7.2v21.1v21.1H380.6z"/>
	<path d="M420.3,84.8c-1.7-1.1-4.6-2.3-7.4-2.3c-7.3,0-12.7,6.1-12.7,15.6c0,10,5.9,15.9,12.9,15.9c2.8,0,5.4-0.9,7.2-2.1l2,5.2
		c-2.2,1.5-6,2.9-9.5,2.9c-12.4,0-20.2-9.6-20.2-22c0-11.5,7.8-21.5,20.3-21.5c3.7,0,7.2,1.6,9.7,3.2L420.3,84.8z"/>
</g>
</svg>
